<svg width="256" height="256" viewBox="0 0 256 256" fill="none" xmlns="http://www.w3.org/2000/svg">
<path fill-rule="evenodd" clip-rule="evenodd" d="M20.2106 44.1637C20.2106 40.9873 21.4724 37.9411 23.7184 35.695C25.9645 33.449 29.0108 32.1871 32.1872 32.1871H223.813C226.989 32.1871 230.036 33.449 232.282 35.695C234.528 37.9411 235.79 40.9873 235.79 44.1637V163.93C235.79 167.106 234.528 170.153 232.282 172.399C230.036 174.645 226.989 175.906 223.813 175.906L153.93 175.906H102.07L32.1872 175.906C29.0108 175.906 25.9645 174.645 23.7184 172.399C21.4724 170.153 20.2106 167.106 20.2106 163.93V44.1637Z" fill="#1E1D3B"/>
<path d="M153.93 175.906H102.07V223.813H153.93V175.906Z" fill="black"/>
<path d="M153.93 175.906L223.813 175.906C226.989 175.906 230.036 174.645 232.282 172.399C234.528 170.153 235.79 167.106 235.79 163.93V44.1637C235.79 40.9873 234.528 37.9411 232.282 35.695C230.036 33.449 226.989 32.1871 223.813 32.1871H32.1872C29.0108 32.1871 25.9645 33.449 23.7184 35.695C21.4724 37.9411 20.2106 40.9873 20.2106 44.1637V163.93C20.2106 167.106 21.4724 170.153 23.7184 172.399C25.9645 174.645 29.0108 175.906 32.1872 175.906L102.07 175.906M153.93 175.906H102.07M153.93 175.906V223.813M102.07 175.906V223.813M153.93 223.813H102.07M153.93 223.813L187.883 223.813M102.07 223.813L68.117 223.813" stroke="black" stroke-width="10" stroke-linecap="round" stroke-linejoin="round"/>
<path d="M127.456 151.25C123.421 151.233 119.393 148.782 118.218 143.897C117.863 142.424 117.169 141.056 116.191 139.905C115.213 138.753 113.979 137.851 112.589 137.271C111.2 136.691 109.694 136.449 108.194 136.567C106.694 136.684 105.243 137.156 103.959 137.945C95.4082 143.193 85.6161 133.333 90.8253 124.712C91.6072 123.419 92.0752 121.958 92.1912 120.448C92.3072 118.938 92.0679 117.422 91.4929 116.023C90.9178 114.623 90.0232 113.381 88.8816 112.395C87.7401 111.41 86.384 110.71 84.9234 110.352C75.1922 107.974 75.1922 94.0264 84.9234 91.6479C86.3853 91.291 87.7429 90.5914 88.8857 89.606C90.0285 88.6206 90.9242 87.3773 91.4999 85.9772C92.0757 84.5771 92.3151 83.0598 92.1989 81.5489C92.0826 80.0379 91.6138 78.576 90.8308 77.282C85.6216 68.6669 95.4082 58.8012 103.965 64.0495C109.506 67.4442 116.688 64.4403 118.218 58.1033C120.578 48.2989 134.422 48.2989 136.782 58.1033C137.137 59.5761 137.831 60.9439 138.809 62.0953C139.787 63.2467 141.021 64.1492 142.411 64.7292C143.8 65.3093 145.306 65.5506 146.806 65.4334C148.306 65.3163 149.757 64.844 151.041 64.0551C159.592 58.8067 169.384 68.6669 164.175 77.2876C163.393 78.581 162.925 80.042 162.809 81.552C162.693 83.0619 162.932 84.5781 163.507 85.9774C164.082 87.3766 164.977 88.6194 166.118 89.6047C167.26 90.59 168.616 91.2901 170.077 91.6479C174.964 92.8428 177.392 96.9521 177.375 101.05M110.875 101C110.875 105.442 112.627 109.703 115.744 112.844C118.862 115.985 123.091 117.75 127.5 117.75C131.909 117.75 136.138 115.985 139.256 112.844C142.373 109.703 144.125 105.442 144.125 101C144.125 96.5576 142.373 92.2972 139.256 89.156C136.138 86.0147 131.909 84.25 127.5 84.25C123.091 84.25 118.862 86.0147 115.744 89.156C112.627 92.2972 110.875 96.5576 110.875 101ZM166.292 159.625C167.429 154.886 169.842 150.555 173.264 147.108C176.685 143.66 180.984 141.23 185.688 140.083C180.984 138.937 176.685 136.507 173.264 133.059C169.842 129.612 167.429 125.28 166.292 120.542C165.154 125.28 162.742 129.612 159.32 133.059C155.898 136.507 151.599 138.937 146.896 140.083C151.599 141.23 155.898 143.66 159.32 147.108C162.742 150.555 165.154 154.886 166.292 159.625Z" stroke="#807EB9" stroke-width="10" stroke-linecap="round" stroke-linejoin="round"/>
</svg>
